<svg xmlns="http://www.w3.org/2000/svg" xmlns:xlink="http://www.w3.org/1999/xlink" viewBox="0 0 168 168">
  <defs>
    <path id="a" d="M84-.2c46.3 0 84 37.6 84 84s-37.7 84-84 84c-46.5 0-84-37.6-84-84s37.5-84 84-84z"/>
  </defs>
  <clipPath id="b">
    <use xlink:href="#a" overflow="visible"/>
  </clipPath>
  <g fill-rule="evenodd" clip-path="url(#b)" clip-rule="evenodd">
    <path fill="#47589F" d="M84-.2c46.3 0 84 37.6 84 84s-37.7 84-84 84c-46.5 0-84-37.6-84-84s37.5-84 84-84z"/>
    <path fill="#FFF" d="M-3 34.2L8.6 17.7 171 133.3 159.5 150-3 34z"/>
    <path fill="#E85666" d="M-1 31.5l7.6-11L169 136l-7.5 11L-1 31.6z"/>
    <path fill="#FFF" d="M172 34.6L160.3 18-3 134.2 8.2 151 172 34.6z"/>
    <path fill="#E85666" d="M170 31.8l-7.7-11L-1.2 137l7.6 11.2L170 31.8z"/>
    <path fill="#FFF" d="M0 103.8v-40h168v40H0z"/>
    <path fill="#FFF" d="M63.8-.2H104v168H63.8V-.2z"/>
    <path fill="#E85666" d="M0 96V71.6h168V96H0z"/>
    <path fill="#E85666" d="M71.8-.2H96v168H71.8V-.2z"/>
  </g>
</svg>
